<svg width="32" height="32" viewBox="0 0 32 32" fill="none" xmlns="http://www.w3.org/2000/svg">
<circle cx="16.0051" cy="16.005" r="13.675" fill="url(#paint0_linear_1766_37854)"/>
<path d="M16.6205 12.0188C16.7369 11.9975 16.7388 11.9909 16.8592 12.0171C17.0019 12.2355 16.8902 20.4923 16.9256 21.6219C17.5438 22.6494 17.9468 22.266 18.8665 22.5255C18.9999 22.5631 19.0077 22.7569 18.9963 22.8805C18.8264 23.0666 18.3679 22.9816 18.1155 22.9747L16.4903 22.9329C15.53 22.9136 14.4262 22.9615 13.4559 22.9739C13.2492 22.9822 13.0028 23.0041 13 22.7152C13.1471 22.4852 13.3785 22.4203 13.6237 22.4278C14.1661 22.4575 15.0462 22.1802 15.0875 21.4774C15.2312 19.0319 15.0729 16.55 15.1442 14.0951C15.1491 13.9289 15.1147 13.4317 15.004 13.3168C14.642 13.1108 13.9206 13.4068 13.4718 13.5021C13.4898 13.3295 13.4979 13.1504 13.5083 12.9766C14.5489 12.6692 15.5864 12.3499 16.6205 12.0188Z" fill="#17171A"/>
<path d="M15.753 8.00139C17.2184 7.94389 17.4016 9.68918 16.2531 9.98386C14.7905 10.1878 14.5877 8.39942 15.753 8.00139Z" fill="#17171A"/>
<defs>
<linearGradient id="paint0_linear_1766_37854" x1="19.1237" y1="41.6764" x2="-8.31466" y2="23.4811" gradientUnits="userSpaceOnUse">
<stop stop-color="white"/>
<stop offset="1" stop-color="#D1E1FF"/>
</linearGradient>
</defs>
</svg>
