<svg width="31" height="22" viewBox="0 0 31 22" fill="none" xmlns="http://www.w3.org/2000/svg">
<path d="M0 11C0 4.92487 4.92487 0 11 0H20C26.0751 0 31 4.92487 31 11C31 17.0751 26.0751 22 20 22H11C4.92487 22 0 17.0751 0 11Z" fill="white" fill-opacity="0.1"/>
<path d="M12.8164 16.3652C11.9551 16.3652 11.498 15.8965 11.498 14.9707V10.9336C11.498 10.1191 11.8555 9.66211 12.5234 9.5625V8.14453C12.5234 5.94141 13.9648 4.86914 15.4941 4.86914C17.0293 4.86914 18.4707 5.94141 18.4707 8.14453V9.5625C19.1445 9.66211 19.4961 10.1191 19.4961 10.9336V14.9707C19.4961 15.8965 19.0391 16.3652 18.1777 16.3652H12.8164ZM13.4551 8.01562V9.54492H17.5449V8.01562C17.5449 6.53906 16.5898 5.75391 15.4941 5.75391C14.3984 5.75391 13.4551 6.53906 13.4551 8.01562Z" fill="white"/>
</svg>
