<svg width="24" height="24" viewBox="0 0 24 24" fill="none" xmlns="http://www.w3.org/2000/svg">
<path fill-rule="evenodd" clip-rule="evenodd" d="M5.35205 20.9756C5.48877 21.0531 5.65967 21.0918 5.86475 21.0918C6.1473 21.0918 6.49365 21.0303 6.90381 20.9072C7.31396 20.7842 7.75602 20.6133 8.22998 20.3945C8.70394 20.1803 9.18473 19.9342 9.67236 19.6562C10.16 19.3828 10.6248 19.0957 11.0669 18.7949C12.2655 18.8542 13.4048 18.7699 14.4849 18.542C15.5695 18.3141 16.563 17.9655 17.4653 17.4961C18.3722 17.0267 19.1561 16.457 19.8169 15.7871C20.4777 15.1172 20.9904 14.3675 21.355 13.5381C21.7196 12.7087 21.9019 11.82 21.9019 10.8721C21.9019 10.5394 21.8745 10.2113 21.8198 9.8877C21.7697 9.55957 21.6922 9.24284 21.5874 8.9375C21.4188 9.08333 21.241 9.21322 21.0542 9.32715C20.8673 9.44108 20.6691 9.53451 20.4595 9.60742C20.5233 9.8125 20.5711 10.0199 20.603 10.2295C20.6395 10.4391 20.6577 10.6533 20.6577 10.8721C20.6577 11.6149 20.5119 12.3213 20.2202 12.9912C19.9331 13.6611 19.5252 14.2764 18.9966 14.8369C18.4725 15.3975 17.8504 15.8851 17.1304 16.2998C16.4103 16.71 15.6151 17.0267 14.7446 17.25C13.8787 17.4779 12.965 17.5918 12.0034 17.5918C11.8804 17.5918 11.7391 17.5872 11.5796 17.5781C11.4246 17.5736 11.2515 17.5667 11.0601 17.5576C10.9006 17.5576 10.7524 17.5827 10.6157 17.6328C10.479 17.6829 10.3377 17.7627 10.1919 17.8721C9.89567 18.0726 9.57894 18.2754 9.2417 18.4805C8.90902 18.6855 8.57861 18.8792 8.25049 19.0615C7.92236 19.2438 7.61702 19.4033 7.33447 19.54C7.05192 19.6768 6.81266 19.777 6.6167 19.8408C6.58024 19.8545 6.55745 19.8499 6.54834 19.8271C6.53923 19.8089 6.54606 19.7861 6.56885 19.7588C6.72835 19.5674 6.90381 19.3486 7.09521 19.1025C7.28662 18.8564 7.46891 18.6081 7.64209 18.3574C7.81982 18.1068 7.9611 17.8766 8.06592 17.667C8.17074 17.471 8.20264 17.2887 8.16162 17.1201C8.12061 16.9561 7.98161 16.8193 7.74463 16.71C6.82406 16.2816 6.03564 15.7689 5.37939 15.1719C4.72314 14.5703 4.21956 13.9072 3.86865 13.1826C3.51774 12.4535 3.34229 11.6833 3.34229 10.8721C3.34229 10.1292 3.48584 9.42285 3.77295 8.75293C4.06462 8.08301 4.47477 7.46777 5.00342 6.90723C5.53206 6.34668 6.15641 5.86133 6.87646 5.45117C7.59652 5.03646 8.38949 4.71745 9.25537 4.49414C10.1213 4.26628 11.0373 4.15234 12.0034 4.15234C12.5503 4.15234 13.0835 4.19336 13.603 4.27539C14.1271 4.35286 14.6284 4.4668 15.1069 4.61719C15.23 4.1888 15.4191 3.81055 15.6743 3.48242C15.1092 3.30013 14.5168 3.15885 13.897 3.05859C13.2817 2.95833 12.6506 2.9082 12.0034 2.9082C10.9006 2.9082 9.85238 3.04264 8.85889 3.31152C7.86995 3.57585 6.96305 3.95182 6.13818 4.43945C5.31331 4.92708 4.59782 5.50358 3.9917 6.16895C3.39014 6.82975 2.92301 7.55892 2.59033 8.35645C2.26221 9.15397 2.09814 9.99251 2.09814 10.8721C2.09814 11.8337 2.28955 12.7451 2.67236 13.6064C3.05973 14.4632 3.59977 15.2357 4.29248 15.9238C4.98975 16.6074 5.80322 17.168 6.73291 17.6055C6.60075 17.8607 6.44124 18.1273 6.25439 18.4053C6.0721 18.6878 5.88981 18.9544 5.70752 19.2051C5.52523 19.4557 5.368 19.6631 5.23584 19.8271C5.12646 19.973 5.05811 20.1188 5.03076 20.2646C5.00342 20.415 5.01709 20.5518 5.07178 20.6748C5.12646 20.8024 5.21989 20.9027 5.35205 20.9756Z" fill="white"/>
<path d="M18.9351 8.8418C18.3927 8.8418 17.896 8.70736 17.4448 8.43848C16.9982 8.1696 16.6405 7.81185 16.3716 7.36523C16.1027 6.91406 15.9683 6.41732 15.9683 5.875C15.9683 5.33268 16.1027 4.83594 16.3716 4.38477C16.6405 3.93359 16.9982 3.57585 17.4448 3.31152C17.896 3.04264 18.3927 2.9082 18.9351 2.9082C19.4774 2.9082 19.9718 3.04264 20.4185 3.31152C20.8696 3.57585 21.2297 3.93359 21.4985 4.38477C21.7674 4.83594 21.9019 5.33268 21.9019 5.875C21.9019 6.41732 21.7674 6.91406 21.4985 7.36523C21.2297 7.81185 20.8696 8.1696 20.4185 8.43848C19.9718 8.70736 19.4774 8.8418 18.9351 8.8418Z" fill="url(#paint0_linear_2795_2854)" style="mix-blend-mode:screen"/>
<defs>
<linearGradient id="paint0_linear_2795_2854" x1="21.9019" y1="12" x2="-6.2045" y2="11.0858" gradientUnits="userSpaceOnUse">
<stop stop-color="#E73B2F"/>
<stop offset="1" stop-color="#790166"/>
</linearGradient>
</defs>
</svg>
