<svg width="24" height="24" viewBox="0 0 24 24" fill="none" xmlns="http://www.w3.org/2000/svg">
<path d="M5.84766 20.8652C4.94238 20.8652 4.66113 20.1006 5.12695 19.4854C5.52246 18.9668 6.26074 17.9297 6.65625 17.165C3.87891 15.8818 2.0332 13.3242 2.0332 10.4414C2.0332 6.02051 6.46289 2.45215 12 2.45215C13.2393 2.45215 14.4346 2.63672 15.5244 2.9707C15.2168 3.35742 15.0059 3.80566 14.8652 4.29785C13.9775 4.03418 13.0107 3.90234 12 3.90234C7.2627 3.90234 3.49219 6.83789 3.49219 10.4414C3.49219 12.7793 5.07422 14.8271 7.83398 16.1104C8.39648 16.374 8.45801 16.7783 8.21191 17.2354C7.91309 17.7979 7.20996 18.7119 6.71777 19.3184C6.67383 19.3799 6.7002 19.4326 6.77051 19.4062C7.57031 19.0811 9.13477 18.1143 10.2158 17.332C10.5498 17.0684 10.8311 16.9541 11.2002 16.9541C11.5518 16.9629 11.8242 16.9717 12 16.9717C16.7461 16.9717 20.5166 14.0361 20.5166 10.4414C20.5166 10.1074 20.4727 9.78223 20.3936 9.46582C20.877 9.29883 21.3252 9.03516 21.7119 8.69238C21.8789 9.24609 21.9668 9.83496 21.9668 10.4414C21.9668 15.0469 17.3701 18.5625 11.2441 18.3955C9.45996 19.6699 7.03418 20.8652 5.84766 20.8652ZM18.9258 8.54297C17.2471 8.54297 15.876 7.17188 15.876 5.49316C15.876 3.82324 17.2471 2.45215 18.9258 2.45215C20.5869 2.45215 21.9668 3.82324 21.9668 5.49316C21.9668 7.17188 20.5869 8.54297 18.9258 8.54297Z" fill="white"/>
</svg>
