<svg width="31" height="22" viewBox="0 0 31 22" fill="none" xmlns="http://www.w3.org/2000/svg">
<path d="M0 11C0 4.92487 4.92487 0 11 0H20C26.0751 0 31 4.92487 31 11C31 17.0751 26.0751 22 20 22H11C4.92487 22 0 17.0751 0 11Z" fill="white" fill-opacity="0.1"/>
<path d="M10.2969 13.2422L9.4707 9.89648C9.44141 9.90234 9.41211 9.90234 9.38281 9.90234C8.61523 9.90234 7.98242 9.27539 7.98242 8.49609C7.98242 7.72852 8.60938 7.10156 9.38281 7.10156C10.1562 7.10156 10.7773 7.73438 10.7773 8.49609C10.7773 8.73633 10.7246 8.95312 10.6191 9.14648L12.377 10.4297C12.5762 10.5703 12.6934 10.5234 12.793 10.3711L14.832 7.29492C14.3984 7.06055 14.0996 6.59766 14.0996 6.06445C14.0996 5.29688 14.7207 4.66992 15.5 4.66992C16.2676 4.66992 16.8945 5.30273 16.8945 6.06445C16.8945 6.59766 16.5957 7.06055 16.1621 7.29492L18.1836 10.3535C18.2949 10.5117 18.4297 10.5645 18.6289 10.4238L20.375 9.15234C20.2754 8.95898 20.2168 8.73633 20.2168 8.49609C20.2168 7.73438 20.8438 7.10156 21.6113 7.10156C22.3848 7.10156 23.0117 7.72852 23.0117 8.49609C23.0117 9.27539 22.3789 9.90234 21.6113 9.90234C21.582 9.90234 21.5527 9.90234 21.5234 9.89648L20.709 13.2422H10.2969ZM10.4902 14.0449H20.5098L20.334 14.748C20.1055 15.6738 19.625 16.1309 18.6523 16.1309H12.3418C11.375 16.1309 10.8887 15.6621 10.666 14.748L10.4902 14.0449Z" fill="white"/>
</svg>
