<svg width="32" height="32" viewBox="0 0 32 32" fill="none" xmlns="http://www.w3.org/2000/svg">
<circle cx="16.0051" cy="16.005" r="13.675" fill="url(#paint0_linear_1766_37856)"/>
<path d="M14.1239 5.87508C14.2183 5.87357 14.3315 5.89308 14.4253 5.90811C15.1659 6.02663 15.9081 6.1356 16.6487 6.25249C16.7179 6.2634 16.797 6.28393 16.8603 6.31346C16.9567 6.48663 17.3178 8.31215 17.3404 8.5664C17.6496 7.88105 17.991 7.18407 18.2904 6.50118C18.6767 6.5751 20.9106 6.86438 21.1012 6.98918C21.2782 7.10511 21.711 7.65258 21.867 7.83561L22.5654 8.64838C22.6915 8.79385 22.8429 8.98657 22.9826 9.11088C22.6745 9.71527 22.2934 10.3861 21.9645 10.986C22.587 10.689 23.2142 10.4018 23.8457 10.1245C24.1303 10.3717 24.3801 10.7053 24.6285 10.9891C24.9476 11.3536 25.289 11.7122 25.5901 12.0914C25.6379 12.1516 25.6964 12.2273 25.7199 12.3008C25.7849 12.5044 25.7493 13.3446 25.7546 13.6166C25.7637 14.0851 25.7987 14.5607 25.7854 15.0287C25.7842 15.0726 25.7832 15.1276 25.7612 15.1668C25.7218 15.2372 23.9298 15.7669 23.6937 15.8492C23.9849 15.8955 24.2663 15.9842 24.5503 16.0575L25.814 16.3776C25.8384 17.1087 25.8382 17.8536 25.8598 18.5862C25.864 18.7291 25.8645 18.8747 25.8667 19.0169C25.8684 19.1244 25.8856 19.2697 25.8128 19.3545C25.5268 19.6923 25.2464 20.1047 24.9524 20.4309C24.7098 20.7 24.3018 21.3178 24.0426 21.5164C23.9373 21.493 23.4456 21.2955 23.3176 21.2414C23.0106 21.1114 22.622 20.9878 22.3304 20.8558C22.3723 20.9334 22.4335 21.0301 22.4845 21.1026C22.7754 21.5158 23.0282 22.0008 23.3278 22.4047C23.2676 22.5066 23.0807 22.7364 22.9999 22.8409L22.3373 23.6994C22.1681 23.9206 21.6312 24.715 21.4171 24.7717C20.5923 24.9901 19.6246 25.0778 18.814 25.3226L18.794 25.3289C18.4724 24.75 18.1581 24.1673 17.8507 23.5808L17.7157 24.6564C17.6634 24.9226 17.6431 25.2397 17.5957 25.5176C17.4343 25.5708 17.1859 25.62 17.0146 25.6586L16.0101 25.8833C15.7931 25.9319 14.8999 26.1481 14.7248 26.1536C14.3928 25.9973 14.0244 25.7992 13.6955 25.6294L12.207 24.8681L12.4582 23.65C12.5103 23.4 12.5672 23.0872 12.635 22.8486C12.3096 23.1555 11.9825 23.4606 11.6537 23.7637C11.5493 23.8616 11.2301 24.1801 11.1278 24.24C10.9198 24.1541 10.7189 24.0267 10.5184 23.922C9.90782 23.603 9.28679 23.3036 8.6779 22.9814C8.62748 22.9548 8.55723 22.9153 8.52923 22.8647C8.36538 22.5681 8.24515 22.2406 8.11151 21.9276L7.42912 20.352C7.57218 20.1947 7.91943 19.935 8.09279 19.7966L9.2037 18.9073C8.94934 18.9655 8.45073 18.98 8.16538 18.9953C7.79785 19.0151 7.31976 19.0666 6.96262 19.0644C6.58582 18.1634 6.16859 17.2526 5.80371 16.3508C5.94373 15.8289 6.17232 15.2379 6.33265 14.7108C6.39452 14.5074 6.5787 13.9032 6.65963 13.7345C7.10537 13.7336 7.55107 13.7274 7.99666 13.7159C8.31354 13.7096 8.72612 13.6921 9.03559 13.7206C8.43502 13.2568 7.70634 12.8142 7.13685 12.3524L7.64598 10.7776C7.72805 10.5245 7.9334 9.76669 8.07227 9.58885C8.17884 9.45238 10.0691 8.32782 10.375 8.13969C10.9704 8.58425 11.6852 9.16433 12.2625 9.6383C12.201 9.49016 12.1001 9.06927 12.0555 8.90152L11.653 7.36366C12.2718 6.95888 12.9358 6.59654 13.5619 6.20115C13.7394 6.08907 13.9371 5.96952 14.1239 5.87508ZM13.038 7.93549C13.0984 8.073 13.1745 8.39401 13.2171 8.55469L13.5105 9.66244L14.0237 11.5911C14.1247 11.9707 14.2483 12.3987 14.3279 12.7796C14.1173 12.6566 13.6905 12.3011 13.4829 12.1368L11.9916 10.9567L10.9163 10.1071C10.7566 9.98135 10.431 9.73838 10.3018 9.60194C10.051 9.75947 9.79918 9.91532 9.5463 10.0695C9.40055 10.1587 9.21321 10.2661 9.07798 10.3658C9.0059 10.5304 8.95652 10.7116 8.89973 10.8829C8.78823 11.2192 8.68815 11.5622 8.56271 11.8936C9.53534 12.569 10.5124 13.2855 11.476 13.9768L12.2424 14.5278C12.3997 14.6419 12.5812 14.7833 12.7425 14.8834L8.87631 14.9085C8.60532 14.9099 8.33254 14.9235 8.06191 14.9283C7.90763 14.931 7.67482 14.944 7.52562 14.9211C7.44851 15.2426 7.31993 15.5737 7.22204 15.8916C7.17874 16.0322 7.1177 16.1905 7.09124 16.3337C7.21774 16.5639 7.34199 16.8791 7.44745 17.1256C7.5352 17.3308 7.66462 17.6092 7.73479 17.8141L11.2346 17.5976C11.728 17.5691 12.3402 17.5089 12.8213 17.5075C12.0856 18.1248 11.3109 18.7411 10.5645 19.3486C10.031 19.7828 9.43763 20.2914 8.89684 20.7031C8.98612 20.8733 9.0929 21.1441 9.17102 21.327C9.26157 21.5391 9.38473 21.8095 9.45776 22.0222C9.6349 22.1336 9.92548 22.2712 10.1191 22.3684C10.3856 22.502 10.6729 22.6578 10.9407 22.7836C11.196 22.5136 11.5536 22.2036 11.8331 21.9439L13.8464 20.0817C14.0972 19.8469 14.3459 19.6334 14.5886 19.3886C14.5529 19.6616 14.4492 20.0945 14.3894 20.3784L14.0006 22.2205L13.7248 23.533C13.6909 23.6942 13.6202 24.0719 13.5667 24.2161C14.0118 24.4297 14.4698 24.6741 14.9096 24.9025C15.3793 24.7675 16.0287 24.6366 16.5154 24.537C16.5299 24.2498 16.5881 23.883 16.627 23.5912L16.8224 22.1294C16.869 21.7811 17.0589 20.0591 17.1501 19.87L17.177 19.8656C17.2081 19.8992 17.2057 19.8987 17.2231 19.9419C17.8799 21.0773 18.4798 22.2581 19.1249 23.4017C19.2253 23.5795 19.3299 23.7669 19.4184 23.95C19.6273 23.8855 19.9431 23.8301 20.167 23.7839C20.3637 23.7433 20.6393 23.6776 20.8301 23.6503C20.931 23.5584 21.0889 23.3361 21.1796 23.2181C21.4017 22.9248 21.6274 22.6347 21.857 22.3473C21.6507 22.0567 21.4482 21.728 21.2551 21.4256L20.3548 20.0197L19.6949 18.9919C19.5837 18.8176 19.4068 18.5534 19.3174 18.3739C19.5167 18.4928 20.3221 18.7803 20.5878 18.8869C21.609 19.2961 22.651 19.6791 23.6715 20.0909C23.9515 19.7061 24.4096 19.225 24.6459 18.8681C24.6612 18.5753 24.6442 18.2656 24.6317 17.972C24.6221 17.7517 24.5993 17.5284 24.6212 17.3084C24.3749 17.2709 24.0004 17.1687 23.7473 17.1069L22.0973 16.6966L20.3882 16.2706C20.0457 16.1853 19.6454 16.0966 19.3156 15.9878C19.4864 15.8814 19.9785 15.743 20.1854 15.6784L21.3984 15.2988L23.4582 14.6479C23.8043 14.5396 24.2317 14.3955 24.5804 14.3085L24.5765 14.2891C24.5121 13.9435 24.5615 13.5256 24.5418 13.1712C24.5309 12.9745 24.5742 12.7767 24.4396 12.6093C24.1549 12.2552 23.8132 11.937 23.5315 11.5817C23.0907 11.807 22.5623 12.0283 22.1051 12.2352L19.1946 13.5521L20.7934 10.6101L21.2554 9.75769C21.3239 9.63136 21.4465 9.39102 21.5235 9.28288C21.224 8.96801 20.9473 8.61899 20.6534 8.29799C20.5923 8.23125 20.5257 8.1549 20.4712 8.08346C20.151 8.02621 19.8304 7.97063 19.5096 7.91671C19.3599 7.89179 19.1409 7.86486 18.9985 7.82991C18.9021 8.10316 18.6937 8.51976 18.5637 8.79679L17.809 10.4043L17.239 11.6236C17.1635 11.7842 17.0109 12.1279 16.9256 12.2627C16.8392 11.9986 16.7534 11.5217 16.6923 11.2323L16.3118 9.44169L16.0384 8.17244C15.9862 7.93982 15.886 7.57274 15.8684 7.3496C15.5354 7.30254 15.2029 7.25166 14.8711 7.19694C14.759 7.17907 14.493 7.13032 14.3894 7.12547C14.2501 7.19543 14.0996 7.28454 13.9677 7.36886C13.6652 7.56215 13.3353 7.73633 13.038 7.93549Z" fill="#17171A"/>
<defs>
<linearGradient id="paint0_linear_1766_37856" x1="19.1237" y1="41.6764" x2="-8.31466" y2="23.4811" gradientUnits="userSpaceOnUse">
<stop stop-color="white"/>
<stop offset="1" stop-color="#D1E1FF"/>
</linearGradient>
</defs>
</svg>
