<svg width="32" height="32" viewBox="0 0 32 32" fill="none" xmlns="http://www.w3.org/2000/svg">
<circle cx="16.0051" cy="16.0051" r="13.675" fill="url(#paint0_linear_1935_431)"/>
<path d="M22.3703 13.4771C22.6545 13.4741 22.8914 13.5481 23.1048 13.7389C23.511 14.1024 23.4203 14.6184 23.4267 15.1058L23.454 16.7735L23.5001 19.4475C23.5112 20.7916 23.5092 22.1836 23.5581 23.525C23.2051 23.5113 22.8182 23.5194 22.4617 23.5194H20.5929H14.8521L10.6269 23.5193L9.26694 23.5191C9.02491 23.5191 8.70569 23.5107 8.46884 23.5274C8.456 22.7774 8.46709 21.9955 8.46708 21.2433L8.46706 16.8985L8.46634 15.5091C8.46592 15.1982 8.43424 14.741 8.50569 14.456C8.61514 14.0196 9.041 13.7652 9.46206 13.761C9.72375 13.7564 9.97581 13.8596 10.1593 14.0462C10.5153 14.4047 10.4378 14.8391 10.4378 15.3043L10.4378 16.6333L10.4366 21.5496L21.5476 21.5494C21.4743 20.0516 21.5012 18.4913 21.4796 16.9888C21.4739 16.4407 21.4645 15.8925 21.4512 15.3445C21.445 15.0234 21.4251 14.6908 21.451 14.3713C21.4939 13.8431 21.8704 13.5403 22.3703 13.4771Z" fill="#17171A"/>
<path d="M16.0747 5.59619C16.1472 5.63746 16.3153 5.76788 16.3886 5.82236L16.9563 6.24608L18.8805 7.68196L22.7852 10.5969C23.4981 11.129 24.2144 11.6629 24.9259 12.1973C25.0305 12.2759 25.1234 12.3809 25.1856 12.4966C25.3161 12.7363 25.3444 13.0186 25.2641 13.2795C25.1836 13.5408 25.0011 13.742 24.7591 13.865C24.5155 13.9884 24.2311 14.0029 23.9763 13.9049C23.7505 13.8167 23.4427 13.5621 23.2389 13.4095L22.3619 12.7502L18.1558 9.61458C17.9152 9.43463 16.167 8.09763 16.0731 8.07255C16.0478 8.06582 16.0297 8.08522 16.0083 8.09735L10.471 12.1584L8.96641 13.2644C8.86642 13.338 8.76677 13.4129 8.66596 13.4853C8.29736 13.7499 8.01983 14.0299 7.53069 13.9576C7.27655 13.9188 7.04755 13.7824 6.89225 13.5775C6.72977 13.361 6.66192 13.0878 6.70416 12.8204C6.77514 12.3598 7.08988 12.1769 7.43602 11.9262C7.60346 11.8049 7.77197 11.6806 7.93889 11.5584L9.80902 10.1849L16.0747 5.59619Z" fill="#17171A"/>
<defs>
<linearGradient id="paint0_linear_1935_431" x1="19.1237" y1="41.6765" x2="-8.31466" y2="23.4811" gradientUnits="userSpaceOnUse">
<stop stop-color="white"/>
<stop offset="1" stop-color="#D1E1FF"/>
</linearGradient>
</defs>
</svg>
