<svg width="32" height="32" viewBox="0 0 32 32" fill="none" xmlns="http://www.w3.org/2000/svg">
<circle cx="16.0051" cy="16.005" r="13.675" fill="url(#paint0_linear_1766_37853)"/>
<path d="M16.0475 7.65234C16.08 7.66469 16.1653 7.71475 16.1952 7.73386C16.6925 8.05148 17.1924 8.36641 17.6906 8.68245L20.7491 10.6206L22.1963 11.5374C22.6877 11.8469 23.2031 12.0682 23.3438 12.6849C23.4205 13.0177 23.3586 13.3674 23.1725 13.6538C22.9816 13.948 22.6921 14.1231 22.3521 14.1959C21.8128 14.3115 21.3933 13.9752 20.9639 13.7023L20.0503 13.1212C19.1502 12.5495 18.1794 11.9614 17.2964 11.3718L17.2772 19.7959L17.2728 22.1948C17.2735 22.73 17.2805 23.266 17.2647 23.8004C17.258 24.0326 17.208 24.2659 17.0778 24.4596C16.8192 24.8446 16.4149 25.0453 15.9575 25.0245C15.4291 24.9868 14.8809 24.5879 14.8088 24.0289C14.7571 23.6279 14.7884 23.1098 14.7884 22.6951L14.789 20.1296L14.7989 11.3596C14.7873 11.368 14.7755 11.3763 14.7636 11.3844C14.4791 11.5764 14.1098 11.7915 13.8133 11.9759L11.9816 13.1177L10.9859 13.7386C10.7808 13.8668 10.5431 14.0291 10.3239 14.1243C9.7881 14.357 9.13952 14.1334 8.82523 13.6495C8.64398 13.3645 8.58315 13.0192 8.65607 12.6893C8.71045 12.4402 8.84213 12.2145 9.03234 12.0447C9.19284 11.9033 9.62891 11.6488 9.8353 11.5217L11.0691 10.7537C12.7171 9.72881 14.4145 8.69484 16.0475 7.65234Z" fill="#17171A"/>
<defs>
<linearGradient id="paint0_linear_1766_37853" x1="19.1237" y1="41.6764" x2="-8.31466" y2="23.4811" gradientUnits="userSpaceOnUse">
<stop stop-color="white"/>
<stop offset="1" stop-color="#D1E1FF"/>
</linearGradient>
</defs>
</svg>
