<svg width="32" height="32" viewBox="0 0 32 32" fill="none" xmlns="http://www.w3.org/2000/svg">
<path d="M15.7773 2.32735C23.327 2.20429 29.5472 8.22417 29.6714 15.7737C29.7955 23.3234 23.7764 29.5445 16.2269 29.6697C8.67577 29.7948 2.45319 23.7745 2.32903 16.2233C2.20489 8.6722 8.22621 2.45046 15.7773 2.32735ZM16.133 27.5306C22.4958 27.4575 27.597 22.2444 27.5323 15.8814C27.4677 9.51835 22.2614 4.41015 15.8983 4.46634C9.52321 4.52265 4.40321 9.74087 4.46805 16.1159C4.53288 22.4911 9.75796 27.604 16.133 27.5306Z" fill="url(#paint0_linear_1766_37858)"/>
<path d="M16.0475 7.65265C16.08 7.66499 16.1653 7.71505 16.1952 7.73416C16.6925 8.05179 17.1924 8.36671 17.6906 8.68276L20.7491 10.6209L22.1963 11.5377C22.6877 11.8472 23.2031 12.0685 23.3438 12.6852C23.4205 13.018 23.3586 13.3677 23.1725 13.6541C22.9816 13.9483 22.6921 14.1234 22.3521 14.1962C21.8128 14.3118 21.3933 13.9755 20.9639 13.7026L20.0503 13.1215C19.1502 12.5498 18.1794 11.9617 17.2964 11.3721L17.2772 19.7962L17.2728 22.1951C17.2735 22.7303 17.2805 23.2664 17.2647 23.8007C17.258 24.0329 17.208 24.2662 17.0778 24.4599C16.8192 24.8449 16.4149 25.0456 15.9575 25.0248C15.4291 24.9871 14.8809 24.5882 14.8088 24.0292C14.7571 23.6282 14.7884 23.1101 14.7884 22.6954L14.789 20.1299L14.7989 11.3599C14.7873 11.3683 14.7755 11.3766 14.7636 11.3847C14.4791 11.5767 14.1098 11.7918 13.8133 11.9762L11.9816 13.118L10.9859 13.7389C10.7808 13.8671 10.5431 14.0294 10.3239 14.1246C9.7881 14.3573 9.13952 14.1337 8.82523 13.6498C8.64398 13.3648 8.58315 13.0195 8.65607 12.6896C8.71045 12.4405 8.84213 12.2149 9.03234 12.045C9.19284 11.9036 9.62891 11.6491 9.8353 11.522L11.0691 10.754C12.7171 9.72912 14.4145 8.69515 16.0475 7.65265Z" fill="url(#paint1_linear_1766_37858)"/>
<defs>
<linearGradient id="paint0_linear_1766_37858" x1="19.1185" y1="41.6662" x2="-8.31605" y2="23.4735" gradientUnits="userSpaceOnUse">
<stop stop-color="white"/>
<stop offset="1" stop-color="#D1E1FF"/>
</linearGradient>
<linearGradient id="paint1_linear_1766_37858" x1="17.6829" y1="32.6467" x2="1.50557" y2="23.5391" gradientUnits="userSpaceOnUse">
<stop stop-color="white"/>
<stop offset="1" stop-color="#D1E1FF"/>
</linearGradient>
</defs>
</svg>
