<svg width="13" height="12" viewBox="0 0 13 12" fill="none" xmlns="http://www.w3.org/2000/svg">
<path d="M1.31836 11.4844C0.457031 11.4844 0 11.0156 0 10.0898V6.05273C0 5.13281 0.457031 4.66406 1.31836 4.66406H6.11133V3.26953C6.11133 1.06641 7.54688 0 9.08203 0C10.6113 0 12.0586 1.06641 12.0586 3.26953V4.44727C12.0586 4.81055 11.8477 4.96875 11.5957 4.96875C11.332 4.96875 11.127 4.79297 11.127 4.44727V3.14648C11.127 1.66406 10.1777 0.884766 9.08203 0.884766C7.98633 0.884766 7.03711 1.66406 7.03711 3.14648V4.69336C7.66406 4.81055 7.99805 5.26758 7.99805 6.05273V10.0898C7.99805 11.0156 7.54102 11.4844 6.67969 11.4844H1.31836Z" fill="#DADAE3"/>
</svg>
