<svg width="24" height="24" viewBox="0 0 24 24" fill="none" xmlns="http://www.w3.org/2000/svg">
<path d="M3.75586 17.0684C3.75586 16.7721 3.83789 16.4873 4.00195 16.2139C4.17057 15.9404 4.37793 15.6715 4.62402 15.4072C4.87467 15.1429 5.12533 14.8809 5.37598 14.6211C5.5446 14.4434 5.67904 14.2246 5.7793 13.9648C5.88411 13.7005 5.96615 13.4157 6.02539 13.1104C6.08464 12.8005 6.13249 12.4814 6.16895 12.1533C6.2054 11.8252 6.2373 11.5039 6.26465 11.1895C6.30566 10.1276 6.4401 9.1888 6.66797 8.37305C6.89583 7.55273 7.24219 6.86686 7.70703 6.31543C8.17643 5.764 8.79167 5.3584 9.55273 5.09863C9.68945 4.5153 9.97428 4.02767 10.4072 3.63574C10.8402 3.24382 11.3711 3.04785 12 3.04785C12.3828 3.04785 12.7406 3.12988 13.0732 3.29395C12.9502 3.43522 12.8385 3.58561 12.7383 3.74512C12.6426 3.90462 12.556 4.07096 12.4785 4.24414C12.3464 4.18945 12.1868 4.16211 12 4.16211C11.5807 4.16211 11.2458 4.31022 10.9951 4.60645C10.7445 4.90267 10.6055 5.27865 10.5781 5.73438C10.569 5.85286 10.5303 5.94401 10.4619 6.00781C10.3981 6.06706 10.3047 6.11263 10.1816 6.14453C9.67578 6.28125 9.22461 6.5319 8.82812 6.89648C8.4362 7.26107 8.12174 7.79655 7.88477 8.50293C7.64779 9.20475 7.50651 10.1367 7.46094 11.2988C7.42904 11.75 7.38802 12.1761 7.33789 12.5771C7.29232 12.9736 7.23079 13.3428 7.15332 13.6846C7.07585 14.0218 6.97559 14.3294 6.85254 14.6074C6.72949 14.8809 6.57682 15.1178 6.39453 15.3184C6.23047 15.4961 6.06413 15.6761 5.89551 15.8584C5.73145 16.0407 5.58561 16.2093 5.45801 16.3643C5.33496 16.5192 5.25293 16.6514 5.21191 16.7607V16.8633H18.7881V16.7607C18.7471 16.6514 18.6628 16.5192 18.5352 16.3643C18.4121 16.2093 18.2663 16.0407 18.0977 15.8584C17.9336 15.6761 17.7695 15.4961 17.6055 15.3184C17.4232 15.1178 17.2705 14.8809 17.1475 14.6074C17.0244 14.3294 16.9219 14.0218 16.8398 13.6846C16.7624 13.3428 16.7008 12.9736 16.6553 12.5771C16.6097 12.1761 16.571 11.75 16.5391 11.2988C16.5254 11.0345 16.5072 10.7861 16.4844 10.5537C16.4661 10.3213 16.4434 10.1003 16.416 9.89062C16.6029 9.89062 16.8034 9.8724 17.0176 9.83594C17.2318 9.79948 17.4277 9.74935 17.6055 9.68555C17.6374 9.92253 17.6624 10.1663 17.6807 10.417C17.7035 10.6676 17.7217 10.9251 17.7354 11.1895C17.7627 11.5039 17.7923 11.8252 17.8242 12.1533C17.8607 12.4814 17.9085 12.8005 17.9678 13.1104C18.0316 13.4157 18.1136 13.7005 18.2139 13.9648C18.3187 14.2246 18.4554 14.4434 18.624 14.6211C18.8747 14.8809 19.123 15.1429 19.3691 15.4072C19.6198 15.6715 19.8271 15.9404 19.9912 16.2139C20.1598 16.4873 20.2441 16.7721 20.2441 17.0684C20.2441 17.3509 20.1416 17.5765 19.9365 17.7451C19.736 17.9183 19.458 18.0049 19.1025 18.0049H15.0967C15.083 18.4196 14.9964 18.8115 14.8369 19.1807C14.682 19.5544 14.4655 19.8825 14.1875 20.165C13.9141 20.4476 13.5905 20.6686 13.2168 20.8281C12.8477 20.9922 12.4421 21.0742 12 21.0742C11.5579 21.0742 11.1501 20.9922 10.7764 20.8281C10.4072 20.6686 10.0837 20.4476 9.80566 20.165C9.53223 19.8825 9.31576 19.5544 9.15625 19.1807C9.0013 18.8115 8.91699 18.4196 8.90332 18.0049H4.89062C4.53971 18.0049 4.26172 17.9183 4.05664 17.7451C3.85612 17.5765 3.75586 17.3509 3.75586 17.0684ZM10.0791 18.0049C10.111 18.6201 10.3047 19.1077 10.6602 19.4678C11.0156 19.8324 11.4622 20.0146 12 20.0146C12.5378 20.0146 12.9844 19.8324 13.3398 19.4678C13.6953 19.1077 13.889 18.6201 13.9209 18.0049H10.0791ZM16.1084 8.93359C15.5661 8.93359 15.0693 8.79915 14.6182 8.53027C14.1715 8.26139 13.8138 7.90365 13.5449 7.45703C13.276 7.00586 13.1416 6.50911 13.1416 5.9668C13.1416 5.42448 13.276 4.92773 13.5449 4.47656C13.8138 4.02539 14.1715 3.66764 14.6182 3.40332C15.0693 3.13444 15.5661 3 16.1084 3C16.6507 3 17.1452 3.13444 17.5918 3.40332C18.043 3.66764 18.403 4.02539 18.6719 4.47656C18.9408 4.92773 19.0752 5.42448 19.0752 5.9668C19.0752 6.50911 18.9408 7.00586 18.6719 7.45703C18.403 7.90365 18.043 8.26139 17.5918 8.53027C17.1452 8.79915 16.6507 8.93359 16.1084 8.93359Z" fill="white"/>
</svg>
