<svg width="24" height="24" viewBox="0 0 24 24" fill="none" xmlns="http://www.w3.org/2000/svg">
<path fill-rule="evenodd" clip-rule="evenodd" d="M4.00195 16.1768C3.83789 16.4502 3.75586 16.735 3.75586 17.0312C3.75586 17.3138 3.85612 17.5394 4.05664 17.708C4.26172 17.8812 4.53971 17.9678 4.89062 17.9678H8.90332C8.91699 18.3825 9.0013 18.7744 9.15625 19.1436C9.31576 19.5173 9.53223 19.8454 9.80566 20.1279C10.0837 20.4105 10.4072 20.6315 10.7764 20.791C11.1501 20.9551 11.5579 21.0371 12 21.0371C12.4421 21.0371 12.8477 20.9551 13.2168 20.791C13.5905 20.6315 13.9141 20.4105 14.1875 20.1279C14.4655 19.8454 14.682 19.5173 14.8369 19.1436C14.9964 18.7744 15.083 18.3825 15.0967 17.9678H19.1025C19.458 17.9678 19.736 17.8812 19.9365 17.708C20.1416 17.5394 20.2441 17.3138 20.2441 17.0312C20.2441 16.735 20.1598 16.4502 19.9912 16.1768C19.8271 15.9033 19.6198 15.6344 19.3691 15.3701C19.123 15.1058 18.8747 14.8438 18.624 14.584C18.4554 14.4062 18.3187 14.1875 18.2139 13.9277C18.1136 13.6634 18.0316 13.3786 17.9678 13.0732C17.9085 12.7633 17.8607 12.4443 17.8242 12.1162C17.7923 11.7881 17.7627 11.4668 17.7354 11.1523C17.7217 10.888 17.7035 10.6305 17.6807 10.3799C17.6624 10.1292 17.6374 9.88542 17.6055 9.64844C17.4277 9.71224 17.2318 9.76237 17.0176 9.79883C16.8034 9.83529 16.6029 9.85352 16.416 9.85352C16.4434 10.0632 16.4661 10.2842 16.4844 10.5166C16.5072 10.749 16.5254 10.9974 16.5391 11.2617C16.571 11.7129 16.6097 12.139 16.6553 12.54C16.7008 12.9365 16.7624 13.3057 16.8398 13.6475C16.9219 13.9847 17.0244 14.2923 17.1475 14.5703C17.2705 14.8438 17.4232 15.0807 17.6055 15.2812C17.7695 15.459 17.9336 15.639 18.0977 15.8213C18.2663 16.0036 18.4121 16.1722 18.5352 16.3271C18.6628 16.4821 18.7471 16.6143 18.7881 16.7236V16.8262H5.21191V16.7236C5.25293 16.6143 5.33496 16.4821 5.45801 16.3271C5.58561 16.1722 5.73145 16.0036 5.89551 15.8213C6.06413 15.639 6.23047 15.459 6.39453 15.2812C6.57682 15.0807 6.72949 14.8438 6.85254 14.5703C6.97559 14.2923 7.07585 13.9847 7.15332 13.6475C7.23079 13.3057 7.29232 12.9365 7.33789 12.54C7.38802 12.139 7.42904 11.7129 7.46094 11.2617C7.50651 10.0996 7.64779 9.16764 7.88477 8.46582C8.12174 7.75944 8.4362 7.22396 8.82812 6.85938C9.22461 6.49479 9.67578 6.24414 10.1816 6.10742C10.3047 6.07552 10.3981 6.02995 10.4619 5.9707C10.5303 5.9069 10.569 5.81576 10.5781 5.69727C10.6055 5.24154 10.7445 4.86556 10.9951 4.56934C11.2458 4.27311 11.5807 4.125 12 4.125C12.1868 4.125 12.3464 4.15234 12.4785 4.20703C12.556 4.03385 12.6426 3.86751 12.7383 3.70801C12.8385 3.5485 12.9502 3.39811 13.0732 3.25684C12.7406 3.09277 12.3828 3.01074 12 3.01074C11.3711 3.01074 10.8402 3.20671 10.4072 3.59863C9.97428 3.99056 9.68945 4.47819 9.55273 5.06152C8.79167 5.32129 8.17643 5.72689 7.70703 6.27832C7.24219 6.82975 6.89583 7.51562 6.66797 8.33594C6.4401 9.15169 6.30566 10.0905 6.26465 11.1523C6.2373 11.4668 6.2054 11.7881 6.16895 12.1162C6.13249 12.4443 6.08464 12.7633 6.02539 13.0732C5.96615 13.3786 5.88411 13.6634 5.7793 13.9277C5.67904 14.1875 5.5446 14.4062 5.37598 14.584C5.12533 14.8438 4.87467 15.1058 4.62402 15.3701C4.37793 15.6344 4.17057 15.9033 4.00195 16.1768ZM10.6602 19.4307C10.3047 19.0706 10.111 18.583 10.0791 17.9678H13.9209C13.889 18.583 13.6953 19.0706 13.3398 19.4307C12.9844 19.7952 12.5378 19.9775 12 19.9775C11.4622 19.9775 11.0156 19.7952 10.6602 19.4307Z" fill="white"/>
<path d="M16.1084 8.89648C15.5661 8.89648 15.0693 8.76204 14.6182 8.49316C14.1715 8.22428 13.8138 7.86654 13.5449 7.41992C13.276 6.96875 13.1416 6.47201 13.1416 5.92969C13.1416 5.38737 13.276 4.89062 13.5449 4.43945C13.8138 3.98828 14.1715 3.63053 14.6182 3.36621C15.0693 3.09733 15.5661 2.96289 16.1084 2.96289C16.6507 2.96289 17.1452 3.09733 17.5918 3.36621C18.043 3.63053 18.403 3.98828 18.6719 4.43945C18.9408 4.89062 19.0752 5.38737 19.0752 5.92969C19.0752 6.47201 18.9408 6.96875 18.6719 7.41992C18.403 7.86654 18.043 8.22428 17.5918 8.49316C17.1452 8.76204 16.6507 8.89648 16.1084 8.89648Z" fill="url(#paint0_linear_2795_2851)" style="mix-blend-mode:screen"/>
<defs>
<linearGradient id="paint0_linear_2795_2851" x1="20.2441" y1="12" x2="-3.16418" y2="11.3622" gradientUnits="userSpaceOnUse">
<stop stop-color="#E73B2F"/>
<stop offset="1" stop-color="#790166"/>
</linearGradient>
</defs>
</svg>
