<svg width="36" height="36" viewBox="0 0 36 36" fill="none" xmlns="http://www.w3.org/2000/svg">
<path d="M0 18C0 8.05888 8.05888 0 18 0C27.9411 0 36 8.05888 36 18C36 27.9411 27.9411 36 18 36C8.05888 36 0 27.9411 0 18Z" fill="black" fill-opacity="0.3"/>
<path d="M8.00586 21.5371C7.45898 21.5371 7.04883 21.3981 6.77539 21.1201C6.50195 20.8421 6.36523 20.4115 6.36523 19.8281V16.3555C6.36523 15.7721 6.49967 15.3392 6.76855 15.0566C7.04199 14.7741 7.45443 14.6328 8.00586 14.6328H10.5898C10.6901 14.6328 10.7699 14.6055 10.8291 14.5508L14.8828 10.9277C15.0788 10.7546 15.252 10.6224 15.4023 10.5312C15.5527 10.4355 15.7236 10.3877 15.915 10.3877C16.1839 10.3877 16.4027 10.4811 16.5713 10.668C16.7399 10.8548 16.8242 11.0781 16.8242 11.3379V24.8389C16.8242 25.0986 16.7399 25.3151 16.5713 25.4883C16.4027 25.6615 16.1885 25.748 15.9287 25.748C15.7373 25.748 15.5596 25.7048 15.3955 25.6182C15.236 25.5361 15.0651 25.4131 14.8828 25.249L10.8291 21.6328C10.7607 21.569 10.681 21.5371 10.5898 21.5371H8.00586ZM8.05371 20.4365H10.8633C10.9863 20.4365 11.0957 20.4525 11.1914 20.4844C11.2871 20.5163 11.3851 20.5778 11.4854 20.6689L15.3613 24.1484C15.3932 24.1803 15.4206 24.2008 15.4434 24.21C15.4707 24.2236 15.498 24.2305 15.5254 24.2305C15.6074 24.2305 15.6484 24.1849 15.6484 24.0938V12.0352C15.6484 11.944 15.6074 11.8984 15.5254 11.8984C15.4889 11.8984 15.457 11.9076 15.4297 11.9258C15.4069 11.944 15.3818 11.9645 15.3545 11.9873L11.4854 15.5146C11.3805 15.6058 11.2803 15.6673 11.1846 15.6992C11.0934 15.7266 10.9863 15.7402 10.8633 15.7402H8.05371C7.87142 15.7402 7.73926 15.7812 7.65723 15.8633C7.57975 15.9453 7.54102 16.0775 7.54102 16.2598V19.917C7.54102 20.0993 7.57975 20.2314 7.65723 20.3135C7.73926 20.3955 7.87142 20.4365 8.05371 20.4365ZM19.9551 21.79C19.8047 21.6807 19.7181 21.5439 19.6953 21.3799C19.6771 21.2113 19.7249 21.0495 19.8389 20.8945C20.1123 20.5026 20.3219 20.0697 20.4678 19.5957C20.6182 19.1172 20.6934 18.6068 20.6934 18.0645C20.6934 17.5221 20.6204 17.0117 20.4746 16.5332C20.3288 16.0501 20.1169 15.6172 19.8389 15.2344C19.7204 15.0794 19.6725 14.9199 19.6953 14.7559C19.7181 14.5872 19.8047 14.4482 19.9551 14.3389C20.0827 14.2477 20.224 14.2181 20.3789 14.25C20.5339 14.2773 20.6637 14.3617 20.7686 14.5029C21.1058 14.9495 21.3724 15.4827 21.5684 16.1025C21.7643 16.7178 21.8623 17.3717 21.8623 18.0645C21.8623 18.7526 21.7643 19.4066 21.5684 20.0264C21.3724 20.6462 21.1058 21.1771 20.7686 21.6191C20.6637 21.765 20.5339 21.8516 20.3789 21.8789C20.224 21.9062 20.0827 21.8766 19.9551 21.79ZM23.1133 24.0938C22.972 24.0026 22.8923 23.8773 22.874 23.7178C22.8558 23.5583 22.9014 23.401 23.0107 23.2461C23.5029 22.5443 23.8857 21.7467 24.1592 20.8535C24.4372 19.9603 24.5762 19.0306 24.5762 18.0645C24.5762 17.0938 24.4395 16.1618 24.166 15.2686C23.8971 14.3753 23.512 13.5801 23.0107 12.8828C22.8968 12.7233 22.849 12.5661 22.8672 12.4111C22.89 12.2516 22.972 12.124 23.1133 12.0283C23.25 11.9326 23.3958 11.9007 23.5508 11.9326C23.7057 11.96 23.8356 12.0465 23.9404 12.1924C24.3187 12.6937 24.6423 13.2611 24.9111 13.8945C25.18 14.528 25.3851 15.1979 25.5264 15.9043C25.6722 16.6107 25.7451 17.3307 25.7451 18.0645C25.7451 18.7936 25.6722 19.5114 25.5264 20.2178C25.3851 20.9242 25.1777 21.5941 24.9043 22.2275C24.6354 22.8564 24.3141 23.4261 23.9404 23.9365C23.8356 24.0778 23.7057 24.1621 23.5508 24.1895C23.3958 24.2214 23.25 24.1895 23.1133 24.0938ZM26.3057 26.4385C26.1644 26.3428 26.0824 26.2129 26.0596 26.0488C26.0413 25.8893 26.0846 25.7321 26.1895 25.5771C26.6452 24.8936 27.0439 24.1576 27.3857 23.3691C27.7275 22.5853 27.9941 21.7513 28.1855 20.8672C28.377 19.9785 28.4727 19.0443 28.4727 18.0645C28.4727 17.0801 28.377 16.1458 28.1855 15.2617C27.9941 14.3776 27.7275 13.5436 27.3857 12.7598C27.0439 11.9714 26.6452 11.2331 26.1895 10.5449C26.0846 10.39 26.0413 10.2327 26.0596 10.0732C26.0824 9.90918 26.1644 9.7793 26.3057 9.68359C26.4378 9.58789 26.5837 9.55827 26.7432 9.59473C26.9027 9.62663 27.0348 9.71777 27.1396 9.86816C27.6364 10.6201 28.0716 11.4268 28.4453 12.2881C28.819 13.1449 29.1084 14.0563 29.3135 15.0225C29.5231 15.984 29.6279 16.998 29.6279 18.0645C29.6279 19.1263 29.5254 20.1403 29.3203 21.1064C29.1152 22.0726 28.8258 22.984 28.4521 23.8408C28.083 24.7021 27.6455 25.5065 27.1396 26.2539C27.0348 26.4043 26.9027 26.4954 26.7432 26.5273C26.5837 26.5638 26.4378 26.5342 26.3057 26.4385Z" fill="white"/>
</svg>
