<svg width="31" height="22" viewBox="0 0 31 22" fill="none" xmlns="http://www.w3.org/2000/svg">
<path d="M0 11C0 4.92487 4.92487 0 11 0H20C26.0751 0 31 4.92487 31 11C31 17.0751 26.0751 22 20 22H11C4.92487 22 0 17.0751 0 11Z" fill="url(#paint0_linear_2293_6912)" fill-opacity="0.2" style="mix-blend-mode:screen"/>
<path d="M14.1816 7.32422L12.3945 4.16016H18.5996L16.8125 7.32422H14.1816ZM11.9258 10.8691L9.98047 7.37695C9.89844 7.22461 9.9043 7.05469 10.0039 6.90234L11.5449 4.55273L14.1992 9.32227C13.2852 9.5918 12.5 10.1426 11.9258 10.8691ZM16.7949 9.32227L19.4492 4.55273L20.9902 6.90234C21.0957 7.05469 21.1016 7.22461 21.0137 7.37695L19.0684 10.8691C18.4883 10.1426 17.709 9.5918 16.7949 9.32227ZM15.4941 17.3789C13.4375 17.3789 11.7734 15.7148 11.7734 13.6582C11.7734 11.5957 13.4375 9.93164 15.4941 9.93164C17.5566 9.93164 19.2207 11.5957 19.2207 13.6582C19.2207 15.7148 17.5566 17.3789 15.4941 17.3789ZM14.4336 15.5742L15.5 14.7949L16.5664 15.5742C16.7949 15.7383 17.0176 15.5684 16.9355 15.3105L16.5137 14.0508L17.5859 13.2773C17.791 13.1367 17.7383 12.8438 17.4512 12.8438L16.127 12.8555L15.7227 11.5898C15.6406 11.332 15.3594 11.332 15.2773 11.5898L14.873 12.8555L13.5488 12.8438C13.2676 12.8438 13.2031 13.1309 13.4082 13.2832L14.4863 14.0508L14.0645 15.3105C13.9766 15.5684 14.2109 15.7383 14.4336 15.5742Z" fill="url(#paint1_linear_2293_6912)"/>
<defs>
<linearGradient id="paint0_linear_2293_6912" x1="31" y1="11" x2="-9.83453" y2="18.0588" gradientUnits="userSpaceOnUse">
<stop stop-color="#D14742"/>
<stop offset="1" stop-color="#790166"/>
</linearGradient>
<linearGradient id="paint1_linear_2293_6912" x1="-4.5" y1="-20.5" x2="16.944" y2="-24.1903" gradientUnits="userSpaceOnUse">
<stop stop-color="#D04643"/>
<stop offset="1" stop-color="#DC60C8"/>
</linearGradient>
</defs>
</svg>
