<svg width="32" height="32" viewBox="0 0 32 32" fill="none" xmlns="http://www.w3.org/2000/svg">
<circle cx="15.8301" cy="15.83" r="12.5" fill="url(#paint0_linear_1766_37859)" stroke="url(#paint1_linear_1766_37859)" stroke-width="2"/>
<path d="M19.6436 14.58C19.6435 13.9891 19.5269 13.4042 19.3008 12.8583C19.0746 12.3124 18.7431 11.8162 18.3252 11.3984C17.9075 10.9807 17.412 10.6489 16.8662 10.4228C16.3202 10.1966 15.7345 10.08 15.1436 10.08C14.5527 10.08 13.9678 10.1967 13.4219 10.4228C12.8759 10.6489 12.3798 10.9805 11.9619 11.3984C11.118 12.2423 10.6436 13.3866 10.6436 14.58C10.6436 15.7735 11.118 16.9177 11.9619 17.7617C12.8058 18.6056 13.9501 19.08 15.1436 19.08C16.337 19.08 17.4813 18.6056 18.3252 17.7617C18.7429 17.3439 19.0746 16.8484 19.3008 16.3027C19.5269 15.7567 19.6436 15.171 19.6436 14.58ZM21.6436 14.58C21.6436 15.4336 21.4751 16.2787 21.1484 17.0673C20.9503 17.5456 20.6956 17.9969 20.3916 18.413L22.7256 20.748C23.1161 21.1385 23.1161 21.7715 22.7256 22.162C22.3351 22.5526 21.702 22.5526 21.3115 22.162L18.9766 19.8281C17.8705 20.6359 16.5303 21.08 15.1436 21.08C13.4198 21.08 11.7668 20.3954 10.5479 19.1767C9.32885 17.9577 8.64355 16.3039 8.64355 14.58C8.64358 12.8561 9.32887 11.2033 10.5479 9.98431C11.1514 9.38074 11.8676 8.90179 12.6562 8.57513C13.4449 8.24848 14.29 8.08003 15.1436 8.08002C15.9971 8.08002 16.8423 8.2485 17.6309 8.57513C18.4195 8.90179 19.1366 9.38073 19.7402 9.98431C20.3436 10.5878 20.8219 11.3043 21.1484 12.0927C21.4751 12.8813 21.6435 13.7264 21.6436 14.58Z" fill="#17171A"/>
<defs>
<linearGradient id="paint0_linear_1766_37859" x1="18.9088" y1="41.1729" x2="-8.17843" y2="23.2104" gradientUnits="userSpaceOnUse">
<stop stop-color="white"/>
<stop offset="1" stop-color="#D1E1FF"/>
</linearGradient>
<linearGradient id="paint1_linear_1766_37859" x1="18.9088" y1="41.1729" x2="-8.17843" y2="23.2104" gradientUnits="userSpaceOnUse">
<stop stop-color="white"/>
<stop offset="1" stop-color="#D1E1FF"/>
</linearGradient>
</defs>
</svg>
