<svg width="19" height="16" viewBox="0 0 19 16" fill="none" xmlns="http://www.w3.org/2000/svg">
<path d="M11.5684 0.50293C11.6004 0.509554 11.6315 0.526455 11.6572 0.552734L18.4434 7.50879C18.4604 7.52632 18.4744 7.5478 18.4844 7.57227C18.4943 7.59691 18.5 7.62397 18.5 7.65137C18.5 7.67874 18.4943 7.70585 18.4844 7.73047L18.4434 7.79395L11.6572 14.749V14.75C11.6316 14.7762 11.6003 14.7922 11.5684 14.7988C11.5362 14.8054 11.5018 14.8023 11.4707 14.7891C11.4396 14.7758 11.4106 14.7529 11.3896 14.7207C11.3685 14.6882 11.3564 14.6478 11.3564 14.6064V10.6191L10.8281 10.6494C5.78525 10.9427 2.34938 14.2842 1.3916 15.332V15.333C1.31613 15.4155 1.21852 15.4694 1.11426 15.4902C1.01017 15.511 0.902014 15.4983 0.804688 15.4521C0.707033 15.4058 0.623311 15.327 0.568359 15.2266C0.513496 15.126 0.490802 15.0088 0.503906 14.8926C0.802801 12.2289 2.22985 9.64093 4.55566 7.61816C6.48988 5.93591 8.8234 4.88634 10.9004 4.7041L11.3564 4.66406V0.695312C11.3565 0.654052 11.3685 0.614471 11.3896 0.582031C11.4106 0.549794 11.4396 0.526986 11.4707 0.513672C11.5018 0.500455 11.5362 0.49636 11.5684 0.50293Z" stroke="#DADAE3"/>
</svg>
