<svg width="101" height="131" viewBox="0 0 101 131" fill="none" xmlns="http://www.w3.org/2000/svg">
<path d="M52.1264 52.4722H51.7013V39.8747C51.7013 29.1677 42.9057 20.457 32.0942 20.457C21.2828 20.457 12.4872 29.1677 12.4872 39.8747V52.4722H12.0621C5.41081 52.4722 0 57.8311 0 64.4181V92.5621C0 99.149 5.41081 104.508 12.0621 104.508H52.1263C58.7774 104.508 64.1884 99.1491 64.1884 92.5621V64.4181C64.1885 57.8311 58.7776 52.4722 52.1264 52.4722ZM15.5051 39.8747C15.5051 30.8156 22.9468 23.4458 32.0942 23.4458C41.2417 23.4458 48.6834 30.8156 48.6834 39.8747V52.4722H15.5051V39.8747ZM61.1706 92.5621C61.1706 97.5007 57.1132 101.519 52.1264 101.519H12.0622C7.07531 101.519 3.01801 97.5007 3.01801 92.5621V64.4181C3.01801 59.479 7.07543 55.4609 12.0622 55.4609H52.1264C57.1133 55.4609 61.1706 59.479 61.1706 64.4181V92.5621Z" fill="url(#paint0_linear_2355_6776)"/>
<path d="M32.0944 70.3885C27.5839 70.3885 23.9141 74.023 23.9141 78.49C23.9141 82.9573 27.5839 86.5917 32.0944 86.5917C36.6049 86.5917 40.2748 82.9573 40.2748 78.49C40.2748 74.0229 36.6049 70.3885 32.0944 70.3885ZM32.0944 83.6029C29.2479 83.6029 26.9318 81.3092 26.9318 78.4899C26.9318 75.6709 29.2479 73.3772 32.0944 73.3772C34.9409 73.3772 37.257 75.6709 37.257 78.4899C37.257 81.3092 34.941 83.6029 32.0944 83.6029Z" fill="url(#paint1_linear_2355_6776)"/>
<path d="M48.1392 59.6519C57.0508 49.7244 69.667 55.2687 76.3182 72.035C82.9695 88.8015 81.1371 110.441 72.2255 120.368C63.3139 130.296 50.6978 124.752 44.0465 107.985C37.3953 91.2187 39.2276 69.5792 48.1392 59.6519Z" fill="url(#paint2_radial_2355_6776)"/>
<path d="M16.535 13.0651C16.9205 -0.212623 30.1843 -3.99437 46.1602 4.61805C62.1362 13.2306 74.7747 30.976 74.3892 44.2538C74.0037 57.5314 60.74 61.3132 44.764 52.7008C28.7879 44.0882 16.1494 26.3427 16.535 13.0651Z" fill="url(#paint3_radial_2355_6776)"/>
<defs>
<linearGradient id="paint0_linear_2355_6776" x1="0.000159365" y1="62.4823" x2="64.1885" y2="62.4823" gradientUnits="userSpaceOnUse">
<stop stop-color="white" stop-opacity="0.2"/>
<stop offset="0.0881" stop-color="white" stop-opacity="0.5"/>
<stop offset="1" stop-color="white"/>
</linearGradient>
<linearGradient id="paint1_linear_2355_6776" x1="23.9141" y1="78.4901" x2="40.2748" y2="78.4901" gradientUnits="userSpaceOnUse">
<stop stop-color="white" stop-opacity="0.2"/>
<stop offset="0.0881" stop-color="white" stop-opacity="0.5"/>
<stop offset="1" stop-color="white"/>
</linearGradient>
<radialGradient id="paint2_radial_2355_6776" cx="0" cy="0" r="1" gradientTransform="matrix(-12.0388 -30.3591 16.136 -17.98 60.1823 90.0101)" gradientUnits="userSpaceOnUse">
<stop stop-color="white" stop-opacity="0.4"/>
<stop offset="0.2386" stop-color="#EEEEEE" stop-opacity="0.3"/>
<stop offset="0.5001" stop-color="#E3E3E3" stop-opacity="0.1"/>
<stop offset="0.8041" stop-color="#E0E0E0" stop-opacity="0"/>
</radialGradient>
<radialGradient id="paint3_radial_2355_6776" cx="0" cy="0" r="1" gradientTransform="matrix(-28.9243 -15.5977 0.695084 -24.0452 45.4621 28.6595)" gradientUnits="userSpaceOnUse">
<stop stop-color="white" stop-opacity="0.4"/>
<stop offset="0.2386" stop-color="#EEEEEE" stop-opacity="0.3"/>
<stop offset="0.5001" stop-color="#E3E3E3" stop-opacity="0.1"/>
<stop offset="0.8041" stop-color="#E0E0E0" stop-opacity="0"/>
</radialGradient>
</defs>
</svg>
