<svg width="65" height="85" viewBox="0 0 65 85" fill="none" xmlns="http://www.w3.org/2000/svg">
<path d="M52.1264 32.0152H51.7013V19.4176C51.7013 8.71064 42.9057 0 32.0942 0C21.2828 0 12.4872 8.71064 12.4872 19.4176V32.0152H12.0621C5.41081 32.0152 0 37.3741 0 43.9611V72.105C0 78.692 5.41081 84.0506 12.0621 84.0506H52.1263C58.7774 84.0506 64.1884 78.6921 64.1884 72.105V43.9611C64.1885 37.3741 58.7776 32.0152 52.1264 32.0152ZM15.5051 19.4176C15.5051 10.3586 22.9468 2.98873 32.0942 2.98873C41.2417 2.98873 48.6834 10.3586 48.6834 19.4176V32.0152H15.5051V19.4176ZM61.1706 72.105C61.1706 77.0436 57.1132 81.0619 52.1264 81.0619H12.0622C7.07531 81.0619 3.01801 77.0436 3.01801 72.105V43.9611C3.01801 39.022 7.07543 35.0039 12.0622 35.0039H52.1264C57.1133 35.0039 61.1706 39.022 61.1706 43.9611V72.105Z" fill="url(#paint0_linear_3498_8147)"/>
<path d="M32.0944 49.9315C27.5839 49.9315 23.9141 53.566 23.9141 58.033C23.9141 62.5003 27.5839 66.1346 32.0944 66.1346C36.6049 66.1346 40.2748 62.5003 40.2748 58.033C40.2748 53.5659 36.6049 49.9315 32.0944 49.9315ZM32.0944 63.1459C29.2479 63.1459 26.9318 60.8522 26.9318 58.0328C26.9318 55.2138 29.2479 52.9201 32.0944 52.9201C34.9409 52.9201 37.257 55.2138 37.257 58.0328C37.257 60.8522 34.941 63.1459 32.0944 63.1459Z" fill="url(#paint1_linear_3498_8147)"/>
<defs>
<linearGradient id="paint0_linear_3498_8147" x1="0.000159365" y1="42.0253" x2="64.1885" y2="42.0253" gradientUnits="userSpaceOnUse">
<stop stop-color="white" stop-opacity="0.2"/>
<stop offset="0.0881" stop-color="white" stop-opacity="0.5"/>
<stop offset="1" stop-color="white"/>
</linearGradient>
<linearGradient id="paint1_linear_3498_8147" x1="23.9141" y1="58.033" x2="40.2748" y2="58.033" gradientUnits="userSpaceOnUse">
<stop stop-color="white" stop-opacity="0.2"/>
<stop offset="0.0881" stop-color="white" stop-opacity="0.5"/>
<stop offset="1" stop-color="white"/>
</linearGradient>
</defs>
</svg>
