<svg width="21" height="22" viewBox="0 0 21 22" fill="none" xmlns="http://www.w3.org/2000/svg">
<path d="M12.4913 4.70215C12.7574 4.44392 13.0006 4.13914 13.2867 3.90127C13.6113 3.63131 14.0958 3.51824 14.4986 3.67043C14.719 3.75377 14.9521 3.98499 14.9819 4.22522C15.0036 4.39815 14.9984 4.51904 14.9285 4.67593C14.9049 4.72875 14.6892 5.093 14.7092 5.11217C14.8224 5.09417 14.9218 5.01788 15.0342 4.99597C15.6398 4.87821 16.2728 5.22524 16.1986 5.90131C16.1899 5.97839 16.1188 6.12119 16.1223 6.15679C16.1259 6.19435 16.2426 6.34498 16.2661 6.42519C16.4265 6.97019 16.0426 7.19438 15.8276 7.58406C15.8146 7.60753 15.8013 7.6224 15.8087 7.65291C16.028 7.52811 16.2819 7.54806 16.4858 7.69204C16.7475 7.87671 16.8371 8.21435 16.8096 8.52226C16.7597 9.07978 16.1561 9.64552 15.8091 10.0669C15.7926 10.0868 15.6967 10.1987 15.7105 10.2128C16.074 9.96869 16.7526 9.93778 17.0556 10.2907C17.5539 10.8709 16.7703 11.4433 16.4072 11.8349C14.7375 13.635 13.0902 15.4469 11.402 17.2298C11.2244 17.4176 10.8649 17.837 10.6456 17.9231C10.4263 18.0092 10.0542 18.071 9.80896 18.1066C9.5382 18.1457 9.20772 18.1406 8.95229 18.1919C8.87763 18.2067 8.65914 18.3613 8.58644 18.4137C8.52671 18.4568 8.1141 18.7913 8.1141 18.8226C8.17108 18.9114 8.31687 18.9791 8.36992 19.0565C8.38171 19.0737 8.39821 19.0827 8.37974 19.1058L6.44597 21.1493C6.29075 21.2858 6.07815 21.1227 6.16067 20.9435C6.16421 20.9361 6.25381 20.8316 6.26835 20.8164C6.60355 20.4642 6.96389 20.1109 7.29949 19.7518C7.48575 19.5526 7.65866 19.3402 7.84885 19.1446V19.0867L3.66692 15.5686C3.50227 15.7552 3.32269 15.9309 3.15607 16.1152C2.93915 16.3558 2.7297 16.6046 2.51043 16.8405C2.4393 16.9168 2.22867 17.2067 2.13593 17.2079C2.01569 17.2095 1.91273 17.0886 1.9536 16.9704L3.16393 15.5611L2.00783 14.5228C1.94967 14.5064 1.71703 14.81 1.66438 14.8647C1.26787 15.2783 0.87884 15.6973 0.486268 16.1155C0.338906 16.2173 0.154606 16.094 0.210407 15.9187C0.222196 15.8816 0.511811 15.5666 0.564468 15.5091C0.657994 15.4074 0.766059 15.3182 0.859584 15.2165C1.22622 14.8174 1.57792 14.4093 1.96146 14.0259L3.17297 15.058C3.27907 14.9821 3.37102 14.889 3.47005 14.8053C3.79503 14.5322 4.41355 13.9743 4.44146 13.5247C4.46543 13.1425 4.06657 12.4288 3.96047 12.0106C3.63549 10.7258 4.09132 10.2046 4.35343 9.03988C4.52437 8.28125 4.54009 7.0637 5.1873 6.54726C5.67929 6.15484 6.36423 6.39076 6.64402 6.91503C6.83029 7.26402 6.74501 7.58562 6.75798 7.96435C6.99297 7.92874 7.18553 8.04572 7.41109 8.05903C7.81938 7.61379 8.17344 7.12317 8.55658 6.6568C9.12166 5.9686 9.68792 5.28823 10.2829 4.62272C10.6672 4.19314 11.1219 3.56558 11.7754 3.56832C12.1102 3.56988 12.4823 3.79094 12.5632 4.12819C12.6139 4.33985 12.5452 4.50026 12.4898 4.6998L12.4913 4.70215ZM7.74078 10.8197C7.7793 10.8298 7.7789 10.804 7.79619 10.7868C8.07205 10.5137 8.33298 10.1894 8.59391 9.90022C8.74835 9.72925 8.81358 9.67369 8.95072 9.47377C9.7897 8.24956 10.6672 7.04688 11.4472 5.78316C11.6634 5.43299 12.0823 4.80974 12.1982 4.43923C12.3141 4.06872 11.9514 3.84571 11.6119 3.93335C11.1372 4.05581 10.5477 4.85708 10.2247 5.22994C9.64195 5.90249 9.06272 6.5856 8.50628 7.27693C8.21863 7.63453 7.94591 8.00464 7.65237 8.35794C7.63861 8.39824 7.74078 8.54104 7.76436 8.59738C8.04101 9.2578 7.91251 10.1451 7.74118 10.8193L7.74078 10.8197ZM11.3203 6.99562C11.5887 6.72527 11.8736 6.42988 12.1573 6.17753C12.5589 5.82071 13.0827 5.59262 13.5971 5.87823C13.6455 5.90522 13.7339 6.02494 13.7975 5.97487C13.8372 5.94396 14.0416 5.57306 14.0848 5.49755C14.2479 5.21116 14.4589 4.8516 14.5957 4.55973C14.7933 4.13836 14.3732 3.89853 13.9952 3.94235C13.6415 3.98343 13.361 4.3019 13.1291 4.54604C12.6061 5.09691 12.0925 5.76907 11.6284 6.37433C11.3474 6.74053 11.0822 7.12004 10.8035 7.48781L10.8625 7.46825C11.0161 7.31175 11.1663 7.15173 11.3207 6.99601L11.3203 6.99562ZM15.808 5.99169C15.9879 5.45021 15.4551 5.18612 14.9906 5.38252C14.7426 5.48737 14.018 6.15171 13.9481 6.39663C13.9276 6.46822 13.9437 6.58286 13.9186 6.67989C13.897 6.76322 13.8482 6.83678 13.8066 6.91033C13.8435 6.91894 13.8533 6.88999 13.8754 6.8716C14.2915 6.52417 14.6927 6.08559 15.2582 5.98113C15.4515 5.94552 15.6162 5.94474 15.808 5.99169ZM12.2241 8.40332C12.6249 7.90683 13.1283 7.34461 13.4494 6.79922C13.5476 6.63255 13.6451 6.51909 13.5402 6.32542C13.3975 6.06133 13.0391 6.05937 12.7919 6.16423C12.3231 6.36337 11.428 7.41386 11.0389 7.81958C9.90288 9.00506 8.79825 10.2152 7.69127 11.4249C7.53684 11.5935 7.31638 11.9085 7.14191 12.0309C7.07471 12.0783 7.06213 12.0787 6.98669 12.0486C6.7403 11.9507 6.94778 11.7645 7.01773 11.6338C7.41423 10.8936 7.68616 9.85015 7.51876 9.01718C7.47671 8.80865 7.35804 8.50387 7.14937 8.40763C7.07825 8.37476 6.75405 8.34503 6.67153 8.35794C6.49705 8.38533 6.29389 8.65098 6.20862 8.79574C5.91546 9.2934 5.86006 9.88458 5.68912 10.4284C5.34999 11.5051 4.73461 12.2211 4.9582 13.423C5.08435 14.1002 5.44116 14.6746 5.20852 15.3835C5.1484 15.5666 5.05566 15.7403 4.90319 15.8612C4.85171 15.9019 4.72046 15.9371 4.73854 16.0048L7.8127 18.5765C7.86496 18.5902 7.95967 18.4614 8.00564 18.4227C8.15536 18.2971 8.35656 18.1422 8.51925 18.035C8.88588 17.7932 9.19436 17.8488 9.61247 17.7944C9.87026 17.7611 10.2231 17.7126 10.4644 17.6265C10.6731 17.5522 10.8802 17.2478 11.0374 17.0831C12.8992 15.1304 14.7301 13.1174 16.5727 11.1413C16.6772 11.0294 16.7629 11.0016 16.8324 10.8333C16.9185 10.6248 16.7526 10.4319 16.5503 10.3838C16.0025 10.2527 15.5462 10.8275 15.1894 11.1522C14.4235 11.8498 13.7539 12.4981 13.0501 13.2634C12.9664 13.3545 12.5507 13.8041 12.4764 13.8256C12.3491 13.8624 12.2131 13.7865 12.221 13.6472C12.2273 13.5396 12.6289 13.1194 12.7251 13.0184C13.4478 12.261 14.1359 11.482 14.8165 10.6839C15.1918 10.2437 15.5659 9.80007 15.9349 9.35405C16.2115 9.01953 16.6438 8.60794 16.3931 8.11693C16.2559 7.84893 16.0681 7.90253 15.8665 8.05433C15.4948 8.33407 15.1069 8.78322 14.778 9.12047C14.2196 9.69247 13.6592 10.2805 13.1189 10.8693C12.656 11.3737 12.2104 11.9355 11.7353 12.4234C11.5404 12.6233 11.3435 12.554 11.4016 12.2673C12.5923 10.9265 13.7582 9.56258 14.8861 8.17288C15.147 7.85167 15.7545 7.20768 15.9011 6.8579C15.9942 6.63646 15.938 6.40445 15.6905 6.33481C15.1678 6.1877 14.6263 6.66502 14.2664 6.98936C12.9476 8.17875 11.7537 9.58879 10.5666 10.9089C10.4817 11.0031 10.2703 11.2993 10.1791 11.3439C10.088 11.3885 10.0322 11.3553 9.94335 11.324L9.9292 11.1146C10.6998 10.2152 11.4771 9.32823 12.2229 8.4045L12.2241 8.40332ZM6.26245 6.95572C5.91114 6.53904 5.45491 6.63959 5.1928 7.08052C4.85132 7.65487 4.85289 8.43267 4.70828 9.08018C4.53027 9.87519 4.11765 10.6033 4.20764 11.4351C4.2493 11.8185 4.38212 12.2172 4.55109 12.5591C4.6458 11.8592 5.04466 11.2539 5.26825 10.5959C5.53272 9.81728 5.59874 8.81022 6.21883 8.21983C6.25852 8.18188 6.39056 8.10754 6.40195 8.06998C6.38349 7.80354 6.44479 7.49211 6.40431 7.23428C6.39763 7.19046 6.29192 6.99171 6.26206 6.95572H6.26245ZM4.67881 13.9469C4.51022 14.351 4.15459 14.6628 3.84494 14.9637C3.80839 14.9993 3.696 15.0592 3.696 15.11L4.15891 15.5295L4.43281 15.7259C4.65641 15.6132 4.7798 15.5349 4.86036 15.2908C5.02265 14.7974 4.87018 14.4512 4.73303 13.9805L4.67881 13.9469Z" stroke="#DADAE3" stroke-width="0.4"/>
<path d="M15.9626 3.78485C15.895 3.71719 15.8953 3.60775 15.9632 3.54041L18.8368 0.693294C18.9048 0.625957 19.0147 0.626223 19.0823 0.693888C19.1499 0.761553 19.1497 0.870993 19.0817 0.93833L16.2082 3.78544C16.1402 3.85278 16.0303 3.85252 15.9626 3.78485Z" stroke="#DADAE3" stroke-width="0.4"/>
<path d="M13.858 2.33236C13.7711 2.29201 13.7335 2.18917 13.7741 2.10266L14.6186 0.299843C14.6591 0.213328 14.7624 0.175903 14.8493 0.216253C14.9362 0.256602 14.9738 0.359445 14.9332 0.445959L14.0887 2.24877C14.0482 2.33529 13.9449 2.37271 13.858 2.33236Z" stroke="#DADAE3" stroke-width="0.4"/>
<path d="M17.9311 5.40973C17.8832 5.32706 17.9116 5.22135 17.9946 5.17362L19.9398 4.05552C20.0228 4.00779 20.129 4.03612 20.1769 4.11879C20.2248 4.20146 20.1964 4.30717 20.1134 4.3549L18.1683 5.473C18.0852 5.52073 17.979 5.4924 17.9311 5.40973Z" stroke="#DADAE3" stroke-width="0.4"/>
</svg>
