<svg width="32" height="32" viewBox="0 0 32 32" fill="none" xmlns="http://www.w3.org/2000/svg">
<path d="M15.1947 2.34751C22.7341 1.90224 29.2067 7.65337 29.6514 15.1927C30.0962 22.732 24.3447 29.2044 16.8053 29.6486C9.26667 30.093 2.79508 24.342 2.35033 16.8034C1.90558 9.26468 7.65608 2.79273 15.1947 2.34751ZM16.3834 27.5234C22.7489 27.312 27.7377 21.9803 27.5261 15.6149C27.3145 9.24938 21.9827 4.26074 15.6172 4.47252C9.25206 4.68429 4.26368 10.0159 4.47526 16.3811C4.68684 22.7462 10.0182 27.7348 16.3834 27.5234Z" fill="url(#paint0_linear_1766_37862)"/>
<path d="M14.1239 5.87527C14.2183 5.87375 14.3315 5.89327 14.4253 5.9083C15.1659 6.02681 15.9081 6.13578 16.6487 6.25267C16.7179 6.26358 16.797 6.28411 16.8603 6.31364C16.9567 6.48681 17.3178 8.31233 17.3404 8.56658C17.6496 7.88124 17.991 7.18425 18.2904 6.50136C18.6767 6.57528 20.9106 6.86456 21.1012 6.98936C21.2782 7.1053 21.711 7.65277 21.867 7.8358L22.5654 8.64856C22.6915 8.79403 22.8429 8.98675 22.9826 9.11106C22.6745 9.71545 22.2934 10.3863 21.9645 10.9862C22.587 10.6892 23.2142 10.402 23.8457 10.1247C24.1303 10.3719 24.3801 10.7055 24.6285 10.9893C24.9476 11.3538 25.289 11.7124 25.5901 12.0915C25.6379 12.1518 25.6964 12.2275 25.7199 12.3009C25.7849 12.5045 25.7493 13.3448 25.7546 13.6168C25.7637 14.0853 25.7987 14.5609 25.7854 15.0289C25.7842 15.0728 25.7832 15.1278 25.7612 15.167C25.7218 15.2374 23.9298 15.767 23.6937 15.8494C23.9849 15.8956 24.2663 15.9844 24.5503 16.0577L25.814 16.3778C25.8384 17.1089 25.8382 17.8538 25.8598 18.5864C25.864 18.7292 25.8645 18.8749 25.8667 19.017C25.8684 19.1245 25.8856 19.2699 25.8128 19.3547C25.5268 19.6925 25.2464 20.1049 24.9524 20.4311C24.7098 20.7002 24.3018 21.318 24.0426 21.5166C23.9373 21.4931 23.4456 21.2956 23.3176 21.2416C23.0106 21.1116 22.622 20.988 22.3304 20.856C22.3723 20.9336 22.4335 21.0303 22.4845 21.1028C22.7754 21.516 23.0282 22.001 23.3278 22.4049C23.2676 22.5067 23.0807 22.7366 22.9999 22.8411L22.3373 23.6995C22.1681 23.9208 21.6312 24.7152 21.4171 24.7719C20.5923 24.9903 19.6246 25.078 18.814 25.3228L18.794 25.3291C18.4724 24.7502 18.1581 24.1675 17.8507 23.581L17.7157 24.6566C17.6634 24.9228 17.6431 25.2399 17.5957 25.5178C17.4343 25.571 17.1859 25.6202 17.0146 25.6588L16.0101 25.8835C15.7931 25.932 14.8999 26.1483 14.7248 26.1538C14.3928 25.9975 14.0244 25.7994 13.6955 25.6295L12.207 24.8683L12.4582 23.6502C12.5103 23.4002 12.5672 23.0874 12.635 22.8488C12.3096 23.1556 11.9825 23.4608 11.6537 23.7639C11.5493 23.8617 11.2301 24.1803 11.1278 24.2402C10.9198 24.1542 10.7189 24.0269 10.5184 23.9222C9.90782 23.6031 9.28679 23.3038 8.6779 22.9816C8.62748 22.955 8.55723 22.9155 8.52923 22.8649C8.36538 22.5683 8.24515 22.2408 8.11151 21.9278L7.42912 20.3522C7.57218 20.1949 7.91943 19.9352 8.09279 19.7967L9.2037 18.9075C8.94934 18.9656 8.45073 18.9802 8.16538 18.9955C7.79785 19.0153 7.31976 19.0667 6.96262 19.0645C6.58582 18.1636 6.16859 17.2528 5.80371 16.351C5.94373 15.8291 6.17232 15.238 6.33265 14.711C6.39452 14.5076 6.5787 13.9034 6.65963 13.7346C7.10537 13.7338 7.55107 13.7276 7.99666 13.7161C8.31354 13.7098 8.72612 13.6923 9.03559 13.7208C8.43502 13.257 7.70634 12.8143 7.13685 12.3526L7.64598 10.7777C7.72805 10.5247 7.9334 9.76688 8.07227 9.58903C8.17884 9.45256 10.0691 8.328 10.375 8.13988C10.9704 8.58444 11.6852 9.16452 12.2625 9.63849C12.201 9.49034 12.1001 9.06945 12.0555 8.9017L11.653 7.36384C12.2718 6.95906 12.9358 6.59672 13.5619 6.20133C13.7394 6.08925 13.9371 5.9697 14.1239 5.87527ZM13.038 7.93567C13.0984 8.07319 13.1745 8.39419 13.2171 8.55488L13.5105 9.66263L14.0237 11.5913C14.1247 11.9709 14.2483 12.3988 14.3279 12.7798C14.1173 12.6567 13.6905 12.3013 13.4829 12.137L11.9916 10.9569L10.9163 10.1073C10.7566 9.98153 10.431 9.73856 10.3018 9.60213C10.051 9.75966 9.79918 9.9155 9.5463 10.0697C9.40055 10.1589 9.21321 10.2663 9.07798 10.366C9.0059 10.5306 8.95652 10.7118 8.89973 10.883C8.78823 11.2194 8.68815 11.5624 8.56271 11.8938C9.53534 12.5692 10.5124 13.2857 11.476 13.977L12.2424 14.528C12.3997 14.642 12.5812 14.7834 12.7425 14.8836L8.87631 14.9087C8.60532 14.91 8.33254 14.9237 8.06191 14.9285C7.90763 14.9312 7.67482 14.9442 7.52562 14.9213C7.44851 15.2427 7.31993 15.5738 7.22204 15.8917C7.17874 16.0324 7.1177 16.1906 7.09124 16.3339C7.21774 16.5641 7.34199 16.8792 7.44745 17.1258C7.5352 17.331 7.66462 17.6094 7.73479 17.8142L11.2346 17.5978C11.728 17.5692 12.3402 17.5091 12.8213 17.5077C12.0856 18.125 11.3109 18.7413 10.5645 19.3488C10.031 19.783 9.43763 20.2916 8.89684 20.7033C8.98612 20.8735 9.0929 21.1442 9.17102 21.3272C9.26157 21.5392 9.38473 21.8097 9.45776 22.0224C9.6349 22.1338 9.92548 22.2714 10.1191 22.3686C10.3856 22.5022 10.6729 22.658 10.9407 22.7838C11.196 22.5138 11.5536 22.2038 11.8331 21.9441L13.8464 20.0819C14.0972 19.847 14.3459 19.6336 14.5886 19.3888C14.5529 19.6617 14.4492 20.0947 14.3894 20.3786L14.0006 22.2206L13.7248 23.5331C13.6909 23.6944 13.6202 24.072 13.5667 24.2163C14.0118 24.4299 14.4698 24.6742 14.9096 24.9027C15.3793 24.7677 16.0287 24.6367 16.5154 24.5372C16.5299 24.25 16.5881 23.8831 16.627 23.5914L16.8224 22.1295C16.869 21.7813 17.0589 20.0592 17.1501 19.8702L17.177 19.8658C17.2081 19.8994 17.2057 19.8989 17.2231 19.942C17.8799 21.0775 18.4798 22.2583 19.1249 23.4019C19.2253 23.5797 19.3299 23.767 19.4184 23.9502C19.6273 23.8856 19.9431 23.8303 20.167 23.7841C20.3637 23.7435 20.6393 23.6778 20.8301 23.6505C20.931 23.5586 21.0889 23.3363 21.1796 23.2183C21.4017 22.925 21.6274 22.6349 21.857 22.3475C21.6507 22.0569 21.4482 21.7281 21.2551 21.4258L20.3548 20.0199L19.6949 18.992C19.5837 18.8178 19.4068 18.5536 19.3174 18.3741C19.5167 18.493 20.3221 18.7805 20.5878 18.887C21.609 19.2963 22.651 19.6792 23.6715 20.0911C23.9515 19.7063 24.4096 19.2252 24.6459 18.8683C24.6612 18.5755 24.6442 18.2658 24.6317 17.9722C24.6221 17.7519 24.5993 17.5286 24.6212 17.3086C24.3749 17.2711 24.0004 17.1689 23.7473 17.107L22.0973 16.6967L20.3882 16.2708C20.0457 16.1855 19.6454 16.0967 19.3156 15.988C19.4864 15.8816 19.9785 15.7431 20.1854 15.6786L21.3984 15.299L23.4582 14.6481C23.8043 14.5398 24.2317 14.3957 24.5804 14.3087L24.5765 14.2893C24.5121 13.9437 24.5615 13.5258 24.5418 13.1714C24.5309 12.9747 24.5742 12.7769 24.4396 12.6095C24.1549 12.2554 23.8132 11.9372 23.5315 11.5818C23.0907 11.8072 22.5623 12.0285 22.1051 12.2354L19.1946 13.5522L20.7934 10.6102L21.2554 9.75788C21.3239 9.63155 21.4465 9.3912 21.5235 9.28306C21.224 8.96819 20.9473 8.61917 20.6534 8.29817C20.5923 8.23144 20.5257 8.15508 20.4712 8.08364C20.151 8.02639 19.8304 7.97081 19.5096 7.91689C19.3599 7.89197 19.1409 7.86505 18.9985 7.83009C18.9021 8.10334 18.6937 8.51994 18.5637 8.79697L17.809 10.4045L17.239 11.6237C17.1635 11.7844 17.0109 12.1281 16.9256 12.2629C16.8392 11.9988 16.7534 11.5219 16.6923 11.2325L16.3118 9.44188L16.0384 8.17263C15.9862 7.94 15.886 7.57292 15.8684 7.34978C15.5354 7.30272 15.2029 7.25184 14.8711 7.19713C14.759 7.17925 14.493 7.1305 14.3894 7.12566C14.2501 7.19561 14.0996 7.28472 13.9677 7.36905C13.6652 7.56233 13.3353 7.73652 13.038 7.93567Z" fill="url(#paint1_linear_1766_37862)"/>
<defs>
<linearGradient id="paint0_linear_1766_37862" x1="19.1195" y1="41.6688" x2="-8.31833" y2="23.4739" gradientUnits="userSpaceOnUse">
<stop stop-color="white"/>
<stop offset="1" stop-color="#D1E1FF"/>
</linearGradient>
<linearGradient id="paint1_linear_1766_37862" x1="18.1248" y1="35.0484" x2="-2.13514" y2="21.7543" gradientUnits="userSpaceOnUse">
<stop stop-color="white"/>
<stop offset="1" stop-color="#D1E1FF"/>
</linearGradient>
</defs>
</svg>
