<svg width="24" height="24" viewBox="0 0 24 24" fill="none" xmlns="http://www.w3.org/2000/svg">
<path d="M5.61523 13.6572C5.31901 13.6572 5.05013 13.5866 4.80859 13.4453C4.56706 13.2995 4.37337 13.1058 4.22754 12.8643C4.08626 12.6227 4.01562 12.3561 4.01562 12.0645C4.01562 11.7682 4.08626 11.4993 4.22754 11.2578C4.37337 11.0163 4.56706 10.8249 4.80859 10.6836C5.05013 10.5378 5.31901 10.4648 5.61523 10.4648C5.9069 10.4648 6.1735 10.5378 6.41504 10.6836C6.66113 10.8249 6.85482 11.0163 6.99609 11.2578C7.14193 11.4993 7.21484 11.7682 7.21484 12.0645C7.21484 12.3561 7.14193 12.6227 6.99609 12.8643C6.85482 13.1058 6.66113 13.2995 6.41504 13.4453C6.1735 13.5866 5.9069 13.6572 5.61523 13.6572ZM11.9932 13.6572C11.7015 13.6572 11.4349 13.5866 11.1934 13.4453C10.9518 13.2995 10.7581 13.1058 10.6123 12.8643C10.471 12.6227 10.4004 12.3561 10.4004 12.0645C10.4004 11.7682 10.471 11.4993 10.6123 11.2578C10.7581 11.0163 10.9518 10.8249 11.1934 10.6836C11.4349 10.5378 11.7015 10.4648 11.9932 10.4648C12.2894 10.4648 12.5583 10.5378 12.7998 10.6836C13.0413 10.8249 13.2327 11.0163 13.374 11.2578C13.5199 11.4993 13.5928 11.7682 13.5928 12.0645C13.5928 12.3561 13.5199 12.6227 13.374 12.8643C13.2327 13.1058 13.0413 13.2995 12.7998 13.4453C12.5583 13.5866 12.2894 13.6572 11.9932 13.6572ZM18.3779 13.6572C18.0863 13.6572 17.8174 13.5866 17.5713 13.4453C17.3298 13.2995 17.1361 13.1058 16.9902 12.8643C16.849 12.6227 16.7783 12.3561 16.7783 12.0645C16.7783 11.7682 16.849 11.4993 16.9902 11.2578C17.1361 11.0163 17.3298 10.8249 17.5713 10.6836C17.8174 10.5378 18.0863 10.4648 18.3779 10.4648C18.6742 10.4648 18.943 10.5378 19.1846 10.6836C19.4261 10.8249 19.6175 11.0163 19.7588 11.2578C19.9046 11.4993 19.9775 11.7682 19.9775 12.0645C19.9775 12.3561 19.9046 12.6227 19.7588 12.8643C19.6175 13.1058 19.4261 13.2995 19.1846 13.4453C18.943 13.5866 18.6742 13.6572 18.3779 13.6572Z" fill="#DADAE3"/>
</svg>
